<svg width="500" height="400" viewBox="0 0 500 400" fill="none" xmlns="http://www.w3.org/2000/svg">
  <!-- Desk -->
  <rect x="50" y="300" width="400" height="20" rx="2" fill="#E0E0E0"/>
  <rect x="70" y="320" width="360" height="10" rx="2" fill="#CCCCCC"/>
  
  <!-- Desk Legs -->
  <rect x="100" y="330" width="20" height="70" rx="2" fill="#E0E0E0"/>
  <rect x="380" y="330" width="20" height="70" rx="2" fill="#E0E0E0"/>
  
  <!-- Computer -->
  <rect x="200" y="180" width="140" height="100" rx="5" fill="#FFFFFF"/>
  <rect x="210" y="190" width="120" height="80" rx="2" fill="#F5F5F5"/>
  <rect x="260" y="280" width="20" height="10" rx="2" fill="#E0E0E0"/>
  <rect x="240" y="290" width="60" height="10" rx="5" fill="#CCCCCC"/>
  
  <!-- Books -->
  <rect x="120" y="240" width="60" height="15" rx="2" fill="#E0E0E0"/>
  <rect x="120" y="255" width="60" height="15" rx="2" fill="#CCCCCC"/>
  <rect x="120" y="270" width="60" height="15" rx="2" fill="#E0E0E0"/>
  
  <!-- Plant -->
  <rect x="400" y="230" width="20" height="50" rx="2" fill="#CCCCCC"/>
  <ellipse cx="410" cy="220" rx="25" ry="20" fill="#A5D6A7"/>
  <ellipse cx="400" cy="210" rx="15" ry="10" fill="#81C784"/>
  <ellipse cx="420" cy="210" rx="15" ry="10" fill="#81C784"/>
  
  <!-- Person -->
  <!-- Head -->
  <circle cx="330" cy="180" r="25" fill="#FFCCBC"/>
  <!-- Body -->
  <rect x="310" y="205" width="40" height="80" rx="10" fill="#7986CB"/>
  <!-- Arms -->
  <rect x="290" y="215" width="20" height="60" rx="8" fill="#7986CB"/>
  <rect x="350" y="215" width="20" height="60" rx="8" fill="#7986CB"/>
  <!-- Hands -->
  <circle cx="290" cy="275" r="10" fill="#FFCCBC"/>
  <circle cx="370" cy="235" r="10" fill="#FFCCBC"/>
  <!-- Legs -->
  <rect x="315" y="285" width="15" height="60" rx="7" fill="#424242"/>
  <rect x="330" y="285" width="15" height="60" rx="7" fill="#424242"/>
  <!-- Feet -->
  <ellipse cx="315" cy="345" rx="15" ry="10" fill="#212121"/>
  <ellipse cx="345" cy="345" rx="15" ry="10" fill="#212121"/>
</svg>

