<svg xmlns="http://www.w3.org/2000/svg" viewBox="0 0 24 24" fill="white">
  <path d="M10.53 10.73c-.1-.31-.19-.61-.29-.92-.1-.31-.19-.6-.27-.89-.08-.28-.15-.54-.22-.78h-.02c-.09.43-.2.86-.34 1.29-.15.48-.3.98-.46 1.48-.14.51-.29.98-.44 1.4h2.54c-.06-.21-.14-.46-.23-.72-.08-.27-.18-.55-.27-.86zM19.75.3H4.25C1.9.3 0 2.2 0 4.55v14.9c0 2.35 1.9 4.25 4.25 4.25h15.5c2.35 0 4.25-1.9 4.25-4.25V4.55C24 2.2 22.1.3 19.75.3zM14.7 16.83h-2.09c-.07 0-.13-.01-.17-.04-.04-.03-.07-.08-.09-.14l-.76-2.45H8.33l-.71 2.45c-.02.05-.04.1-.09.13-.05.03-.11.05-.18.05H5.3c-.07 0-.12-.01-.15-.04-.03-.03-.04-.07-.02-.12L8.5 7.72c.02-.07.07-.14.15-.21.08-.07.18-.1.3-.1h2.35c.08 0 .15.01.19.04.04.03.07.07.1.12l3.47 9.06c.03.05.03.09.02.12-.03.05-.08.08-.18.08zm3.24-3.63c-.35.33-.78.6-1.29.79-.51.2-1.07.29-1.68.29-.26 0-.5-.02-.71-.05-.21-.04-.4-.08-.56-.14-.16-.06-.3-.12-.42-.19-.12-.07-.21-.14-.28-.19-.07-.06-.12-.1-.14-.12-.03-.02-.05-.03-.06-.04-.05-.02-.09-.03-.11-.02-.03.01-.05.03-.06.06-.01.03-.02.07-.03.13v.32c0 .07-.03.12-.09.15-.06.03-.16.04-.29.04h-1.49c-.09 0-.15-.05-.15-.16V5.35c0-.07.02-.12.07-.15.05-.03.13-.04.24-.04h2.22c.5 0 .95.06 1.34.18.39.12.72.29.99.51.27.22.47.49.61.81.14.32.21.68.21 1.08 0 .59-.17 1.1-.52 1.52-.35.42-.82.74-1.41.95.35.1.66.23.93.39.27.16.5.35.69.57.19.22.33.47.43.74.1.27.15.56.15.85 0 .5-.12.93-.35 1.28z"/>
  <path d="M16.21 9.42c-.19-.1-.44-.15-.76-.15h-.71c-.07 0-.12.01-.15.04-.03.03-.04.08-.04.14v2.7c.03 0 .07.01.12.01h.61c.34 0 .62-.04.85-.13.23-.09.42-.21.57-.36.15-.15.25-.33.32-.53.07-.2.1-.41.1-.64 0-.23-.03-.45-.1-.65-.07-.2-.16-.37-.29-.51-.13-.14-.3-.26-.52-.36z"/>
</svg>

