<svg xmlns="http://www.w3.org/2000/svg" viewBox="0 0 24 24" fill="white">
  <path d="M11.5725 0c-.1763 0-.3098.0013-.3584.0067-.0516.0053-.2159.021-.3636.0328-3.4088.3073-6.6017 2.1463-8.624 4.9728C1.1004 6.584.3802 8.3666.1082 10.255c-.0962.659-.108.8537-.108 1.7474s.012 1.0884.108 1.7476c.652 4.506 3.8591 8.2919 8.2087 9.6945.7789.2511 1.6.4223 2.5337.5255.3636.04 1.9354.04 2.299 0 1.6117-.1783 2.9772-.577 4.3237-1.2643.2065-.1056.2464-.1337.2183-.1573-.0188-.0139-.8987-1.1938-1.9543-2.62l-1.919-2.592-2.4047-3.5583c-1.3231-1.9564-2.4117-3.556-2.4211-3.556-.0094-.0026-.0187 1.5787-.0187 3.509 0 3.3802.0093 3.5162.0933 3.6087.0517.0662.1322.1454.1869.1765.0961.0452.1148.0452.7089.0452h.6032l.1085-.068a.4383.4383 0 00.1869-.2329c.0187-.0662.0281-1.0998.0281-3.6554V9.6612c0-3.2802-.0094-3.5647-.0663-3.6554-.0376-.0705-.1037-.1267-.1683-.1633-.0893-.0493-.1404-.0558-.6726-.0558h-.5744l-.1682.0986c-.0934.0547-.1776.1337-.2253.213-.0376.0705-1.3544 2.0378-2.9259 4.3717-1.5714 2.3338-2.8645 4.2551-2.8739 4.2689-.0092.0139-.0187-.9634-.0187-2.1674 0-1.7943-.0093-2.1954-.0562-2.2854a.4967.4967 0 00-.3373-.2503c-.096-.0172-1.0517-.0211-1.2458-.0067-.2911.0172-.3994.0798-.5147.2183-.0656.0798-.0749.1337-.0842.2643-.0047.0986-.0139.1797-.0187.1809-.0047.0012-.2159-.3105-.4757-.693a12.2203 12.2203 0 00-1.9117-2.002C14.0442 3.7686 11.7455 2.7316 9.3237 2.6025c-.3998-.0212-1.0377-.0186-1.3725.0053zm1.9511 4.6587c.0563.0172.1313.0478.1683.0663.0656.0346 1.0283 1.3865 1.9824 2.7808.0749.1102.1404.2.1451.2.0047 0 .0187-.0186.0328-.0398.0141-.0213.4593-.6815 1.0004-1.4668.5411-.7852 1.0097-1.4667 1.0425-1.5122.0702-.0971.1636-.1809.2441-.2199.0513-.0252.1404-.0451.2533-.0586.1962-.0213.6214-.0186.8046.0053.3373.0452.5237.1556.6963.4105.0656.0971.0796.1449.0796.2784 0 .1337-.0093.1743-.0562.2784-.0376.0798-.2206.3758-.5331.8642-.4732.7465-1.0378 1.6387-1.9965 3.1528-.8705 1.3785-.9983 1.5761-1.0518 1.6387-.0983.1155-.2441.2154-.3867.2643-.1031.0346-.1404.0372-.6913.0372-.5556 0-.5882-.0026-.6913-.0372-.1427-.0489-.2911-.1556-.3867-.2784-.0563-.0705-1.3918-2.1134-2.9682-4.5389-1.5763-2.4254-2.8833-4.4337-2.9026-4.4631-.0702-.1155-.0796-.1582-.0796-.2924 0-.1449.0094-.1716.0889-.2784.0842-.1102.2535-.2199.4124-.2651.1172-.0346.1683-.0372.7558-.0372.5106 0 .648.0053.7324.0266z"/>
</svg>

