<svg xmlns="http://www.w3.org/2000/svg" viewBox="0 0 24 24" fill="white">
  <path d="M19.75.3H4.25C1.9.3 0 2.2 0 4.55v14.9c0 2.35 1.9 4.25 4.25 4.25h15.5c2.35 0 4.25-1.9 4.25-4.25V4.55C24 2.2 22.1.3 19.75.3zm2.95 19.15c0 1.6-1.35 2.95-2.95 2.95H4.25c-1.6 0-2.95-1.35-2.95-2.95V4.55c0-1.6 1.35-2.95 2.95-2.95h15.5c1.6 0 2.95 1.35 2.95 2.95v14.9zM10.1 8.15c.1-.15.1-.35 0-.5l-2-3.35c-.1-.15-.3-.25-.45-.25H5.25c-.35 0-.6.35-.45.65l2 3.35c.1.15.1.35 0 .5l-2.05 3.35c-.15.35.1.7.45.7h2.35c.2 0 .4-.1.45-.25l2.1-3.5zm7.15 3.5c.1-.15.1-.35 0-.5l-2-3.35c-.1-.15-.3-.25-.45-.25h-2.35c-.35 0-.6.35-.45.65l2 3.35c.1.15.1.35 0 .5l-2.05 3.35c-.15.35.1.7.45.7h2.35c.2 0 .4-.1.45-.25l2.1-3.5z"/>
</svg>

